<?xml version="1.0" standalone="no"?>
<!DOCTYPE svg PUBLIC "-//W3C//DTD SVG 20010904//EN"
 "http://www.w3.org/TR/2001/REC-SVG-20010904/DTD/svg10.dtd">
<svg version="1.0" xmlns="http://www.w3.org/2000/svg"
 width="473.000000pt" height="473.000000pt" viewBox="0 0 473.000000 473.000000"
 preserveAspectRatio="xMidYMid meet">
<metadata>
Created by potrace 1.11, written by Peter Selinger 2001-2013
</metadata>
<g transform="translate(0.000000,473.000000) scale(0.100000,-0.100000)"
fill="#000000" stroke="none">
<path d="M580 4328 c-1 -7 -2 -898 -3 -1981 l-2 -1967 1787 0 1787 0 0 165 0
165 -1590 0 -1589 0 0 1815 0 1815 -195 0 c-149 0 -195 -3 -195 -12z"/>
<path d="M1467 4328 c6 -7 70 -98 143 -203 74 -104 159 -226 190 -270 31 -44
82 -116 112 -160 31 -44 70 -98 86 -120 16 -22 116 -164 222 -315 l194 -275 1
-265 0 -265 -227 -3 -228 -2 0 47 c-1 27 -2 269 -3 538 l-2 490 -377 0 -378 0
0 -35 c-1 -56 -1 -2441 -1 -2487 l1 -43 379 0 380 0 0 373 c0 204 0 398 1 430
l0 57 712 -2 713 -3 0 -425 0 -425 379 -3 c223 -1 382 2 385 7 9 14 6 2540 -3
2548 -8 8 -755 12 -757 3 -1 -3 -2 -243 -3 -535 l-1 -530 -209 -3 c-121 -1
-212 2 -215 7 -3 5 -6 126 -5 269 l1 259 69 100 c38 55 240 344 449 642 209
298 390 557 403 577 l22 34 -336 -2 -337 -3 -268 -383 -268 -383 -31 43 c-17
24 -40 54 -50 68 -11 14 -49 66 -84 115 -36 50 -72 99 -80 110 -8 11 -83 113
-166 228 l-151 207 -336 0 c-267 0 -333 -3 -326 -12z"/>
</g>
</svg>
